# xmcd CD database file generated by Grip 3.3.1
# 
# Track frame offsets:
#       150
#       22260
#       32110
#       52218
#       72460
#       92065
#       104088
#       115628
#       125775
#       135940
#       152675
#       173118
#       203910
# 
# Disc length: 3046 seconds
# 
# Revision: 5
# Processed by: cddbd v1.5.2PL0 Copyright (c) Steve Scherf et al.
# Submitted via: Grip 3.3.1
# 
DISCID=bf0be40d
DTITLE=Screamin' Jay Hawkins - At Last
DYEAR=1998
DGENRE=Blues
TTITLE0=Listen
TTITLE1=Because of You
TTITLE2=Coulda', Woulda', Shoulda'
TTITLE3=Potluck
TTITLE4=You Took Me
TTITLE5=Deceived
TTITLE6=I'll Be There
TTITLE7=I Played the Fool
TTITLE8=Shut Your Mouth when You Sneeze
TTITLE9=Life Goes On
TTITLE10=You Want Love
TTITLE11=Make Me Happy
TTITLE12=I Shot the Sheriff
EXTD=YEAR: 1998
EXTT0=
EXTT1=
EXTT2=
EXTT3=
EXTT4=
EXTT5=
EXTT6=
EXTT7=
EXTT8=
EXTT9=
EXTT10=
EXTT11=
EXTT12=
PLAYORDER=
